<svg xmlns="http://www.w3.org/2000/svg" fill="#1cac5c" viewBox="0 0 48 48"><g data-name="Dental care"><path d="M48,13C48-.15,30.49-5,23.78,6.47c-2.27.5-4.3,1.79-7.7.52A19.37,19.37,0,0,0,9.4,6C5.11,6,0,8,0,17.33c0,6,3.67,9.59,4.83,14,.75,2.84.53,9.23,1.59,14a3.43,3.43,0,0,0,6.57.28c3-9.4,5.36-10.13,6-10.13s3,.73,6,10.13a3.43,3.43,0,0,0,6.57-.28,58.26,58.26,0,0,0,1-8.29c.39-5.87.43-6.13,3-11.14A13,13,0,0,0,48,13ZM31.23,30.86c-.8,3.06-.58,9.5-1.61,14.1a1.43,1.43,0,0,1-2.71.12C22,29.7,16,29.67,11.09,45.08A1.43,1.43,0,0,1,8.38,45c-1-4.59-.81-11-1.61-14.1C5.51,26.05,2,22.8,2,17.33,2,11.05,4.42,8,9.4,8a17.3,17.3,0,0,1,6,.87,10.39,10.39,0,0,0,7.31,0,13,13,0,0,0,10.62,17A25,25,0,0,0,31.23,30.86ZM35,24A11,11,0,1,1,46,13,11,11,0,0,1,35,24Z"/><path d="M42,10H38V6a1,1,0,0,0-1-1H33a1,1,0,0,0-1,1v4H28a1,1,0,0,0-1,1v4a1,1,0,0,0,1,1h4v4a1,1,0,0,0,1,1h4a1,1,0,0,0,1-1V16h4a1,1,0,0,0,1-1V11A1,1,0,0,0,42,10Zm-1,4H37a1,1,0,0,0-1,1v4H34V15a1,1,0,0,0-1-1H29V12h4a1,1,0,0,0,1-1V7h2v4a1,1,0,0,0,1,1h4Z"/></g></svg>