<svg xmlns="http://www.w3.org/2000/svg" fill="#1cac5c" enable-background="new 0 0 50 50" viewBox="0 0 50 50"><path fill="#1cac5c" d="M19.21972,32.63908h11.56006c-0.47998,2.77002-2.88989,4.89001-5.78003,4.89001
				C22.10986,37.5291,19.6997,35.4091,19.21972,32.63908z"/><path fill="#1cac5c" d="M41.76977 32.14909v1.95996c0 .45996-.31006.85999-.77002.96997l-4.08984.97998c-.1001.26001-.21021.53003-.33008.80005l2.23999 3.66003c.23999.39001.17993.90002-.15015 1.21997l-3.5498 3.56995c-.33008.33008-.84009.39014-1.22998.15015l-3.59009-2.2301c-.26001.12-.52002.2301-.77002.32996l-1 4.18005c-.09985.45007-.51001.77002-.96997.77002h-5.02002c-.45996 0-.87012-.31995-.96997-.78003l-.96997-4.12c-.27002-.09998-.53003-.20996-.78003-.32996l-3.63013 2.25989c-.38989.24011-.90991.18005-1.23999-.1499l-3.55981-3.58008c-.32007-.32996-.38013-.83997-.14014-1.22998l2.21997-3.59998c-.11987-.26001-.23999-.52991-.33984-.79993l-4.13013-.97998c-.44995-.11011-.77002-.51001-.77002-.97009v-2.07996c.2002.03003.41016.05005.62012.05005h8.31006c.28979 4.08984 3.68994 7.32996 7.83984 7.32996 4.14014 0 7.55005-3.24011 7.84009-7.32996h8.30981C41.35986 32.19914 41.56982 32.17912 41.76977 32.14909zM43.08636 25.32771v3.10093c0 .97466-.87212 1.77196-1.93799 1.77196H8.85163c-1.07545 0-1.93799-.7973-1.93799-1.77196v-3.10093c0-.98332.86254-1.77196 1.93799-1.77196h32.29675C42.21424 23.55575 43.08636 24.3444 43.08636 25.32771zM42.00976 20.11907c0 .51001-.02002 1.01001-.07007 1.52002-.25977-.05005-.52002-.08008-.79004-.08008H8.84985c-.27002 0-.53003.03003-.79004.08008-.05005-.51001-.07007-1.01001-.07007-1.52002 0-6.80005 4.02002-12.87 10.15015-15.56006L18.86987 16.299c.11987 1.94006 1.71997 3.46008 3.63989 3.46008h4.97998c1.92017 0 3.52002-1.52002 3.64014-3.46008l.72998-11.73999C37.98974 7.24907 42.00976 13.31902 42.00976 20.11907z"/><path fill="#1cac5c" d="M27.48614,17.762h-4.97219c-0.85592,0-1.59335-0.70135-1.64842-1.58766L20.0994,3.84417
		c-0.07969-1.28253,0.72145-2.35325,1.79178-2.35325h6.21773c1.07033,0,1.87147,1.07072,1.79178,2.35325l-0.76612,12.33017
		C29.07949,17.06065,28.34205,17.762,27.48614,17.762z"/></svg>